<?xml version="1.0" standalone="no"?>
<!DOCTYPE svg PUBLIC "-//W3C//DTD SVG 20010904//EN"
 "http://www.w3.org/TR/2001/REC-SVG-20010904/DTD/svg10.dtd">
<svg version="1.0" xmlns="http://www.w3.org/2000/svg"
 width="586.000000pt" height="397.000000pt" viewBox="0 0 586.000000 397.000000"
 preserveAspectRatio="xMidYMid meet">

<g transform="translate(0.000000,397.000000) scale(0.100000,-0.100000)"
fill="#000000" stroke="none">
<path d="M0 1985 l0 -1985 2930 0 2930 0 0 1985 0 1985 -2930 0 -2930 0 0
-1985z m5060 60 l0 -1515 -2240 0 -2240 0 0 1515 0 1515 2240 0 2240 0 0
-1515z"/>
<path d="M660 2045 l0 -1435 2160 0 2160 0 0 1435 0 1435 -2160 0 -2160 0 0
-1435z m2818 768 c-3 -10 -15 -60 -29 -110 l-24 -93 -443 0 c-345 0 -444 -3
-447 -12 -3 -7 -6 -23 -7 -36 l-3 -23 283 1 c264 1 282 -1 282 -17 0 -25 -48
-195 -58 -205 -4 -4 -136 -9 -292 -10 l-285 -3 -31 -115 c-17 -63 -34 -127
-38 -142 l-6 -28 -111 0 -111 0 6 28 c4 15 52 194 106 398 55 204 100 374 100
378 0 3 250 6 556 6 525 0 556 -1 552 -17z m-2068 -1163 l0 -40 -80 0 -80 0 0
-45 0 -45 70 0 70 0 0 -40 0 -40 -70 0 -70 0 0 -90 0 -90 -45 0 -45 0 0 215 0
215 125 0 125 0 0 -40z m250 -176 l0 -215 -42 3 -43 3 -3 213 -2 212 45 0 45
0 0 -216z m480 182 c0 -27 -19 -60 -87 -155 -49 -67 -94 -130 -102 -141 -13
-20 -11 -20 88 -20 l101 0 0 -40 0 -40 -155 0 -155 0 0 37 c0 30 17 59 100
175 l100 138 -100 0 -100 0 0 40 0 40 155 0 155 0 0 -34z m450 0 c0 -26 -21
-62 -100 -172 l-100 -139 100 -3 100 -3 0 -39 0 -40 -155 0 -155 0 0 37 c0 30
17 59 100 175 l100 138 -100 0 -100 0 0 40 0 40 155 0 155 0 0 -34z m402 10
c48 -32 62 -106 27 -150 -12 -15 -20 -28 -18 -30 2 -2 14 -8 26 -15 27 -14 47
-72 39 -115 -13 -70 -71 -95 -218 -96 l-88 0 0 216 0 216 103 -4 c76 -3 109
-8 129 -22z m318 -110 c0 -139 10 -190 40 -206 32 -17 70 -11 95 15 24 23 25
28 25 175 l0 150 45 0 45 0 0 -156 c0 -174 -9 -207 -63 -246 -46 -33 -140 -37
-195 -9 -67 34 -76 61 -80 249 l-4 162 46 0 46 0 0 -134z m720 101 c0 -25 -22
-63 -101 -172 l-101 -140 101 -3 101 -3 0 -39 0 -40 -155 0 -155 0 0 39 c0 33
14 58 95 170 52 72 95 133 95 136 0 3 -43 5 -95 5 l-95 0 0 40 0 40 155 0 155
0 0 -33z m450 1 c0 -26 -23 -65 -101 -173 l-100 -140 100 -3 101 -3 0 -39 0
-40 -155 0 -155 0 0 39 c0 33 14 58 95 170 52 72 95 133 95 136 0 3 -43 5 -95
5 l-95 0 0 40 0 40 155 0 155 0 0 -32z"/>
<path d="M2850 1564 l0 -45 41 3 c49 4 72 30 58 66 -7 18 -16 22 -54 22 l-45
0 0 -46z"/>
<path d="M2850 1396 l0 -56 43 0 c51 0 87 22 87 54 0 33 -23 48 -80 54 l-50 5
0 -57z"/>
</g>
</svg>
